HIERARCHY
ROOT Hips
{
	OFFSET 0.000000 0.000000 0.000000
	CHANNELS 6 Xposition Yposition Zposition Zrotation Yrotation Xrotation 
	JOINT Spine1
	{
		OFFSET -0.013727 5.003762 -0.053727
		CHANNELS 3 Zrotation Yrotation Xrotation
		JOINT Spine2
		{
			OFFSET -0.000000 7.125302 -0.029825
			CHANNELS 3 Zrotation Yrotation Xrotation
			JOINT Chest
			{
				OFFSET -0.000000 7.550064 -0.815971
				CHANNELS 3 Zrotation Yrotation Xrotation
				JOINT Neck1
				{
					OFFSET -0.181677 26.311296 -0.553348
					CHANNELS 3 Zrotation Yrotation Xrotation
					JOINT Neck2
					{
						OFFSET -0.000003 7.709399 2.302586
						CHANNELS 3 Zrotation Yrotation Xrotation
						JOINT Head
						{
							OFFSET -0.000005 6.128914 1.953708
							CHANNELS 3 Zrotation Yrotation Xrotation
							JOINT HeadEnd
							{
								OFFSET 0.003598 16.065401 -1.835379
								CHANNELS 3 Zrotation Yrotation Xrotation
								End Site
								{
									OFFSET 0.000000 0.000000 0.000000
								}
							}
							JOINT Jaw
							{
								OFFSET 0.002637 0.475592 3.094941
								CHANNELS 3 Zrotation Yrotation Xrotation
								End Site
								{
									OFFSET 0.000000 0.000000 0.000000
								}
							}
							JOINT LeftEye
							{
								OFFSET 3.206381 5.380207 7.586884
								CHANNELS 3 Zrotation Yrotation Xrotation
								End Site
								{
									OFFSET 0.000000 0.000000 0.000000
								}
							}
							JOINT RightEye
							{
								OFFSET -3.222440 5.361866 7.558233
								CHANNELS 3 Zrotation Yrotation Xrotation
								End Site
								{
									OFFSET 0.000000 0.000000 0.000000
								}
							}
						}
					}
				}
				JOINT LeftShoulder
				{
					OFFSET 1.621652 23.237164 5.113413
					CHANNELS 3 Zrotation Yrotation Xrotation
					JOINT LeftArm
					{
						OFFSET 14.919845 0.000002 -5.502327
						CHANNELS 3 Zrotation Yrotation Xrotation
						JOINT LeftForeArm
						{
							OFFSET 28.739309 0.000003 -0.002588
							CHANNELS 3 Zrotation Yrotation Xrotation
							JOINT LeftHand
							{
								OFFSET 27.093979 -0.000003 0.002608
								CHANNELS 3 Zrotation Yrotation Xrotation
								JOINT LeftHandThumb1
								{
									OFFSET 2.276480 -1.392045 3.191413
									CHANNELS 3 Zrotation Yrotation Xrotation
									JOINT LeftHandThumb2
									{
										OFFSET 4.012841 -1.828125 1.641655
										CHANNELS 3 Zrotation Yrotation Xrotation
										JOINT LeftHandThumb3
										{
											OFFSET 2.798517 0.000001 -0.000003
											CHANNELS 3 Zrotation Yrotation Xrotation
											JOINT LeftHandThumbEnd
											{
												OFFSET 3.180791 -0.000002 0.000003
												CHANNELS 3 Zrotation Yrotation Xrotation
												End Site
												{
													OFFSET 0.000000 0.000000 0.000000
												}
											}
										}
									}
								}
								JOINT LeftHandIndex1
								{
									OFFSET 3.247554 -0.531997 2.296170
									CHANNELS 3 Zrotation Yrotation Xrotation
									JOINT LeftHandIndex2
									{
										OFFSET 6.364580 0.012062 0.178600
										CHANNELS 3 Zrotation Yrotation Xrotation
										JOINT LeftHandIndex3
										{
											OFFSET 3.662366 0.000000 0.000000
											CHANNELS 3 Zrotation Yrotation Xrotation
											JOINT LeftHandIndex4
											{
												OFFSET 2.329242 0.000002 0.000003
												CHANNELS 3 Zrotation Yrotation Xrotation
												JOINT LeftHandIndexEnd
												{
													OFFSET 2.759619 -0.180539 -0.113024
													CHANNELS 3 Zrotation Yrotation Xrotation
													End Site
													{
														OFFSET 0.000000 0.000000 0.000000
													}
												}
											}
										}
									}
								}
								JOINT LeftHandMiddle1
								{
									OFFSET 3.163499 0.240982 1.000333
									CHANNELS 3 Zrotation Yrotation Xrotation
									JOINT LeftHandMiddle2
									{
										OFFSET 6.190777 -0.259277 -1.002549
										CHANNELS 3 Zrotation Yrotation Xrotation
										JOINT LeftHandMiddle3
										{
											OFFSET 4.356523 -0.000006 0.000001
											CHANNELS 3 Zrotation Yrotation Xrotation
											JOINT LeftHandMiddle4
											{
												OFFSET 2.996875 -0.000007 0.000000
												CHANNELS 3 Zrotation Yrotation Xrotation
												JOINT LeftHandMiddleEnd
												{
													OFFSET 2.304294 -0.294571 -0.031740
													CHANNELS 3 Zrotation Yrotation Xrotation
													End Site
													{
														OFFSET 0.000000 0.000000 0.000000
													}
												}
											}
										}
									}
								}
								JOINT LeftHandRing1
								{
									OFFSET 2.882643 -0.053650 -0.322543
									CHANNELS 3 Zrotation Yrotation Xrotation
									JOINT LeftHandRing2
									{
										OFFSET 5.854542 -0.486203 -1.373841
										CHANNELS 3 Zrotation Yrotation Xrotation
										JOINT LeftHandRing3
										{
											OFFSET 4.350580 -0.000001 0.000003
											CHANNELS 3 Zrotation Yrotation Xrotation
											JOINT LeftHandRing4
											{
												OFFSET 2.651324 0.000007 0.000003
												CHANNELS 3 Zrotation Yrotation Xrotation
												JOINT LeftHandRingEnd
												{
													OFFSET 1.936111 0.077686 -0.000069
													CHANNELS 3 Zrotation Yrotation Xrotation
													End Site
													{
														OFFSET 0.000000 0.000000 0.000000
													}
												}
											}
										}
									}
								}
								JOINT LeftHandPinky1
								{
									OFFSET 2.865500 -0.310003 -1.600378
									CHANNELS 3 Zrotation Yrotation Xrotation
									JOINT LeftHandPinky2
									{
										OFFSET 5.087852 -1.331142 -1.771231
										CHANNELS 3 Zrotation Yrotation Xrotation
										JOINT LeftHandPinky3
										{
											OFFSET 3.070975 0.000003 0.000000
											CHANNELS 3 Zrotation Yrotation Xrotation
											JOINT LeftHandPinky4
											{
												OFFSET 1.549667 0.000000 0.000001
												CHANNELS 3 Zrotation Yrotation Xrotation
												JOINT LeftHandPinkyEnd
												{
													OFFSET 1.944895 -0.157801 0.057219
													CHANNELS 3 Zrotation Yrotation Xrotation
													End Site
													{
														OFFSET 0.000000 0.000000 0.000000
													}
												}
											}
										}
									}
								}
							}
						}
					}
				}
				JOINT RightShoulder
				{
					OFFSET -1.380118 23.180307 5.214158
					CHANNELS 3 Zrotation Yrotation Xrotation
					JOINT RightArm
					{
						OFFSET -15.037197 0.000011 -5.545604
						CHANNELS 3 Zrotation Yrotation Xrotation
						JOINT RightForeArm
						{
							OFFSET -28.736639 0.000003 -0.002597
							CHANNELS 3 Zrotation Yrotation Xrotation
							JOINT RightHand
							{
								OFFSET -27.133619 -0.000001 0.002613
								CHANNELS 3 Zrotation Yrotation Xrotation
								JOINT RightHandThumb1
								{
									OFFSET -2.274036 -1.383990 3.163127
									CHANNELS 3 Zrotation Yrotation Xrotation
									JOINT RightHandThumb2
									{
										OFFSET -4.011429 -1.827468 1.640914
										CHANNELS 3 Zrotation Yrotation Xrotation
										JOINT RightHandThumb3
										{
											OFFSET -2.794935 -0.000003 -0.000003
											CHANNELS 3 Zrotation Yrotation Xrotation
											JOINT RightHandThumbEnd
											{
												OFFSET -3.183855 0.000003 0.000000
												CHANNELS 3 Zrotation Yrotation Xrotation
												End Site
												{
													OFFSET 0.000000 0.000000 0.000000
												}
											}
										}
									}
								}
								JOINT RightHandIndex1
								{
									OFFSET -3.253269 -0.520060 2.282866
									CHANNELS 3 Zrotation Yrotation Xrotation
									JOINT RightHandIndex2
									{
										OFFSET -6.341918 0.012473 0.178265
										CHANNELS 3 Zrotation Yrotation Xrotation
										JOINT RightHandIndex3
										{
											OFFSET -3.654874 -0.000010 -0.000001
											CHANNELS 3 Zrotation Yrotation Xrotation
											JOINT RightHandIndex4
											{
												OFFSET -2.327587 0.000001 0.000000
												CHANNELS 3 Zrotation Yrotation Xrotation
												JOINT RightHandIndexEnd
												{
													OFFSET -2.761789 -0.180657 -0.113079
													CHANNELS 3 Zrotation Yrotation Xrotation
													End Site
													{
														OFFSET 0.000000 0.000000 0.000000
													}
												}
											}
										}
									}
								}
								JOINT RightHandMiddle1
								{
									OFFSET -3.168107 0.246593 1.001031
									CHANNELS 3 Zrotation Yrotation Xrotation
									JOINT RightHandMiddle2
									{
										OFFSET -6.180830 -0.258836 -1.000896
										CHANNELS 3 Zrotation Yrotation Xrotation
										JOINT RightHandMiddle3
										{
											OFFSET -4.348904 -0.000001 -0.000001
											CHANNELS 3 Zrotation Yrotation Xrotation
											JOINT RightHandMiddle4
											{
												OFFSET -3.000244 -0.000002 -0.000002
												CHANNELS 3 Zrotation Yrotation Xrotation
												JOINT RightHandMiddleEnd
												{
													OFFSET -2.302518 -0.294372 -0.031707
													CHANNELS 3 Zrotation Yrotation Xrotation
													End Site
													{
														OFFSET 0.000000 0.000000 0.000000
													}
												}
											}
										}
									}
								}
								JOINT RightHandRing1
								{
									OFFSET -2.885694 -0.067952 -0.308858
									CHANNELS 3 Zrotation Yrotation Xrotation
									JOINT RightHandRing2
									{
										OFFSET -5.854197 -0.486132 -1.373732
										CHANNELS 3 Zrotation Yrotation Xrotation
										JOINT RightHandRing3
										{
											OFFSET -4.338814 -0.000004 -0.000001
											CHANNELS 3 Zrotation Yrotation Xrotation
											JOINT RightHandRing4
											{
												OFFSET -2.654905 -0.000005 0.000003
												CHANNELS 3 Zrotation Yrotation Xrotation
												JOINT RightHandRingEnd
												{
													OFFSET -1.933570 0.077524 -0.000052
													CHANNELS 3 Zrotation Yrotation Xrotation
													End Site
													{
														OFFSET 0.000000 0.000000 0.000000
													}
												}
											}
										}
									}
								}
								JOINT RightHandPinky1
								{
									OFFSET -2.866430 -0.342798 -1.584145
									CHANNELS 3 Zrotation Yrotation Xrotation
									JOINT RightHandPinky2
									{
										OFFSET -5.091370 -1.332054 -1.772385
										CHANNELS 3 Zrotation Yrotation Xrotation
										JOINT RightHandPinky3
										{
											OFFSET -3.062666 -0.000007 0.000000
											CHANNELS 3 Zrotation Yrotation Xrotation
											JOINT RightHandPinky4
											{
												OFFSET -1.546527 0.000006 -0.000002
												CHANNELS 3 Zrotation Yrotation Xrotation
												JOINT RightHandPinkyEnd
												{
													OFFSET -1.945122 -0.157721 0.057211
													CHANNELS 3 Zrotation Yrotation Xrotation
													End Site
													{
														OFFSET 0.000000 0.000000 0.000000
													}
												}
											}
										}
									}
								}
							}
						}
					}
				}
			}
		}
	}
	JOINT LeftLeg
	{
		OFFSET 10.043214 -8.434527 2.595655
		CHANNELS 3 Zrotation Yrotation Xrotation
		JOINT LeftShin
		{
			OFFSET -0.000001 -43.221752 -0.802912
			CHANNELS 3 Zrotation Yrotation Xrotation
			JOINT LeftFoot
			{
				OFFSET 0.000002 -42.155094 -3.481523
				CHANNELS 3 Zrotation Yrotation Xrotation
				JOINT LeftToeBase
				{
					OFFSET 0.000000 -5.059475 13.231529
					CHANNELS 3 Zrotation Yrotation Xrotation
					JOINT LeftToeEnd
					{
						OFFSET -0.009607 -1.647617 6.513017
						CHANNELS 3 Zrotation Yrotation Xrotation
						End Site
						{
							OFFSET 0.000000 0.000000 0.000000
						}
					}
				}
			}
		}
	}
	JOINT RightLeg
	{
		OFFSET -10.047277 -8.295260 2.620317
		CHANNELS 3 Zrotation Yrotation Xrotation
		JOINT RightShin
		{
			OFFSET 0.000000 -43.362209 -0.805556
			CHANNELS 3 Zrotation Yrotation Xrotation
			JOINT RightFoot
			{
				OFFSET 0.000002 -42.117393 -3.478397
				CHANNELS 3 Zrotation Yrotation Xrotation
				JOINT RightToeBase
				{
					OFFSET -0.000001 -5.079609 13.284196
					CHANNELS 3 Zrotation Yrotation Xrotation
					JOINT RightToeEnd
					{
						OFFSET 0.009532 -1.634384 6.460591
						CHANNELS 3 Zrotation Yrotation Xrotation
						End Site
						{
							OFFSET 0.000000 0.000000 0.000000
						}
					}
				}
			}
		}
	}
}
MOTION
Frames: 4
Frame Time: 0.033333
0.769708 94.109467 -0.749321 -0.631867 0.589419 -4.596782 3.200565 0.363380 -2.571487 0.061403 2.113765 -5.787009 1.508364 -0.280667 16.853573 -10.162980 11.218440 22.702040 0.441525 2.075082 -3.765796 -1.592881 3.006393 -11.250084 0.000077 -0.000021 0.000006 0.015799 -0.087191 0.028674 0.710907 -3.824026 -10.611172 -0.693523 3.652513 -10.577941 -10.668558 -1.748289 11.547244 -43.543419 -22.660547 -4.265440 178.902161 -47.125175 -179.219742 8.569855 -5.219922 -3.482021 -5.882102 9.861279 0.702590 -10.936858 -0.360575 7.156197 0.000001 8.774812 -0.000003 -16.369135 18.950043 6.204699 -1.844030 2.498503 -2.507276 -10.163589 4.678940 4.621104 -20.975998 -0.000004 0.000001 -21.226254 2.451692 -3.593995 0.000000 -0.000005 -0.000000 -1.362681 2.240796 -0.746322 -21.334892 0.584906 3.008320 -13.821194 -0.000001 0.000002 -23.887129 -0.249080 -0.839481 -61.325539 2.637331 -1.145848 -0.294024 1.679687 0.833255 -14.218192 0.093215 1.300577 -34.211998 -0.287566 0.967169 -20.033176 0.964534 1.212842 0.000000 0.000000 0.000000 -3.440386 0.788230 0.501655 -15.928167 -3.167306 2.999704 -6.338815 -0.000001 0.000001 -18.123411 3.648175 -4.905661 -0.000004 0.000001 -0.000003 14.866940 16.717278 15.853847 47.087727 40.809059 12.327906 -178.114883 58.422520 -178.645706 -9.468782 10.320077 -16.655645 2.243539 -5.255031 -3.180155 14.282875 -0.826592 6.952496 -0.000001 -12.690592 -0.000001 15.719393 -17.841471 3.119384 1.665665 -1.955919 -2.878297 4.727792 -4.170582 4.993917 11.020511 0.000004 -0.000000 12.109031 -3.735710 -2.866778 0.000001 -0.000001 -0.000001 1.291985 -1.928548 -1.498088 14.800113 0.567469 3.865605 14.242554 -1.341733 -6.660647 19.631939 0.143926 -0.648241 49.111538 -0.400024 -6.041670 0.353029 -1.511149 -0.031941 20.222767 3.684307 2.316628 18.787245 0.000004 0.000001 10.751609 -0.479867 1.397903 -0.000001 -0.000002 0.000001 3.273802 0.305948 -0.580109 21.486788 11.830362 2.266131 8.162917 -0.000000 -0.000000 18.399052 -3.798977 -4.940566 0.000002 -0.000001 -0.000003 16.157145 20.364202 -18.467880 -0.428922 -0.906895 22.573160 -15.799446 -7.288919 5.987604 1.626429 -1.824864 0.046836 0.000000 -0.000000 0.000002 -12.359087 -14.309874 9.885073 0.028056 0.632509 20.980474 14.233107 3.966855 -22.532923 -1.413417 0.937671 -0.608294 -0.000000 -0.000000 -0.000001 
1.112012 94.093506 -0.290635 -0.714335 0.269506 -4.179177 3.341670 0.388540 -2.524226 0.118666 2.049683 -5.770542 1.669438 -0.424977 16.753603 -10.591793 11.439871 22.394611 0.424747 2.132100 -3.754334 -1.702081 3.065526 -10.646390 0.000077 -0.000021 0.000006 0.002648 -0.031805 0.030676 0.710134 -3.781577 -10.620789 -0.711564 3.710707 -10.607947 -10.432217 -1.928216 11.201454 -43.086693 -23.247972 -5.327132 179.038681 -47.114491 -179.350449 9.242408 -5.577476 -3.604748 -5.882101 9.861278 0.702590 -10.936858 -0.360576 7.156196 0.000002 8.774817 -0.000002 -16.375311 18.784149 6.193860 -1.844031 2.498503 -2.507276 -10.163590 4.678938 4.621104 -20.975994 -0.000002 0.000002 -21.226250 2.451694 -3.593992 0.000000 -0.000005 -0.000001 -1.362680 2.240799 -0.746323 -21.334887 0.584910 3.008320 -13.821194 -0.000001 0.000001 -23.887131 -0.249077 -0.839482 -61.106564 2.476757 -1.083321 -0.294024 1.679686 0.833255 -14.218194 0.093217 1.300581 -34.211998 -0.287562 0.967169 -20.033178 0.964535 1.212841 -0.000000 0.000000 -0.000000 -3.440385 0.788232 0.501655 -15.928167 -3.167304 2.999704 -6.338817 -0.000001 0.000001 -18.123411 3.648178 -4.905662 -0.000004 0.000001 -0.000003 14.567893 17.001503 15.654022 46.175735 41.771271 11.771849 -178.416702 58.558350 -178.818771 -9.940378 10.438695 -16.255707 2.243540 -5.255033 -3.180156 14.282878 -0.826593 6.952495 -0.000002 -12.690587 0.000002 15.593333 -17.706663 3.162028 1.665665 -1.955920 -2.878298 4.727794 -4.170582 4.993919 11.020512 0.000004 -0.000001 12.109035 -3.735710 -2.866777 0.000000 -0.000001 -0.000000 1.291983 -1.928549 -1.498087 14.800114 0.567466 3.865605 14.242556 -1.341737 -6.660647 19.631941 0.143925 -0.648242 49.058445 -0.417327 -5.935494 0.353030 -1.511149 -0.031941 20.222771 3.684307 2.316627 18.787245 0.000005 0.000002 10.751611 -0.479869 1.397905 -0.000001 0.000001 -0.000001 3.273805 0.305946 -0.580109 21.486794 11.830363 2.266131 8.162917 0.000001 -0.000001 18.399057 -3.798979 -4.940569 0.000003 0.000000 -0.000002 16.142357 19.996683 -18.999086 -0.423106 -0.830869 23.673832 -15.321893 -6.812402 4.782885 1.626276 -1.845379 -0.090375 0.000000 -0.000000 0.000002 -12.463723 -14.163404 10.006441 0.024664 0.623076 20.220715 14.856561 4.047879 -22.235834 -1.419115 0.913146 -0.793117 0.000000 0.000000 -0.000001 
1.636977 94.090729 0.192129 -0.852280 0.046206 -3.623877 3.516600 0.470617 -2.563207 0.168419 1.940082 -5.765499 1.896365 -0.507890 16.552177 -10.971513 11.678329 22.195604 0.406569 2.148795 -3.753161 -1.810225 3.040089 -9.923831 0.000077 -0.000022 0.000005 -0.005896 -0.005816 0.043852 0.709026 -3.744358 -10.618121 -0.729388 3.738956 -10.616171 -10.321490 -2.181160 10.810572 -42.199043 -23.711782 -6.511336 179.059265 -47.126896 -179.425797 10.223295 -5.904246 -3.599042 -5.882103 9.861277 0.702591 -10.936857 -0.360577 7.156198 -0.000001 8.774811 -0.000000 -16.423525 18.462648 6.132449 -1.844030 2.498503 -2.507276 -10.163592 4.678941 4.621103 -20.975996 -0.000002 0.000002 -21.226255 2.451692 -3.593994 0.000000 -0.000007 0.000000 -1.362681 2.240797 -0.746323 -21.334892 0.584910 3.008319 -13.821197 -0.000002 0.000002 -23.887135 -0.249078 -0.839481 -60.969467 2.375606 -1.017923 -0.294026 1.679686 0.833255 -14.218190 0.093214 1.300579 -34.212002 -0.287564 0.967170 -20.033176 0.964534 1.212842 -0.000001 0.000000 -0.000001 -3.440384 0.788232 0.501656 -15.928165 -3.167307 2.999704 -6.338818 -0.000002 0.000002 -18.123407 3.648176 -4.905661 -0.000004 -0.000000 -0.000003 14.431663 17.305252 15.460606 44.617867 42.884346 11.048146 -178.266647 59.008106 -178.674072 -10.485455 10.548331 -15.704793 2.243539 -5.255032 -3.180153 14.282877 -0.826594 6.952497 -0.000002 -12.690592 -0.000002 15.437413 -17.614021 3.199954 1.665664 -1.955920 -2.878296 4.727793 -4.170582 4.993917 11.020509 0.000003 0.000000 12.109029 -3.735708 -2.866776 0.000000 0.000000 -0.000001 1.291984 -1.928547 -1.498086 14.800111 0.567470 3.865604 14.242553 -1.341735 -6.660651 19.631941 0.143925 -0.648241 49.027168 -0.505889 -5.811331 0.353028 -1.511149 -0.031941 20.222769 3.684305 2.316629 18.787243 0.000006 0.000000 10.751611 -0.479869 1.397904 -0.000001 0.000000 0.000000 3.273803 0.305947 -0.580108 21.486792 11.830366 2.266133 8.162916 0.000003 -0.000001 18.399052 -3.798981 -4.940568 0.000003 0.000001 0.000000 15.965266 19.877468 -19.932638 -0.420631 -0.774791 25.190775 -14.776464 -6.520096 3.598233 1.636934 -1.820276 -0.292184 0.000000 -0.000000 0.000002 -12.642101 -14.151732 10.185464 0.052323 0.629598 19.121731 15.447145 4.226463 -21.733671 -1.425903 0.965504 -0.923616 -0.000000 -0.000000 -0.000001 
2.149712 94.119713 0.772421 -0.982679 -0.044685 -2.891438 3.688423 0.653899 -2.652647 0.200861 1.827251 -5.785841 2.205486 -0.528576 16.180037 -11.541901 12.028063 21.998041 0.359774 2.018352 -3.725900 -1.761669 2.734511 -8.750942 0.000077 -0.000021 0.000006 -0.011335 0.027471 0.041874 0.698363 -3.700002 -10.607538 -0.734158 3.761172 -10.629498 -10.308244 -2.255821 10.246147 -41.126431 -23.835072 -7.280591 178.710358 -47.131870 -179.307587 11.449278 -6.548306 -3.364285 -5.882100 9.861279 0.702590 -10.936857 -0.360574 7.156195 0.000000 8.774809 -0.000000 -16.242779 18.255793 6.124631 -1.844031 2.498502 -2.507276 -10.163589 4.678940 4.621104 -20.975994 -0.000001 0.000002 -21.226250 2.451694 -3.593995 -0.000000 -0.000007 -0.000002 -1.362680 2.240796 -0.746323 -21.334892 0.584910 3.008320 -13.821192 -0.000002 0.000001 -23.887131 -0.249078 -0.839482 -60.697277 2.320951 -0.964231 -0.294025 1.679687 0.833255 -14.218194 0.093217 1.300579 -34.212002 -0.287563 0.967169 -20.033180 0.964536 1.212841 -0.000001 -0.000001 0.000001 -3.440384 0.788234 0.501655 -15.928171 -3.167306 2.999703 -6.338817 0.000000 0.000000 -18.123413 3.648177 -4.905662 -0.000004 -0.000000 -0.000002 14.375799 17.630634 15.195119 42.794090 43.945171 10.300133 -178.144348 59.536522 -178.403824 -11.222015 10.338105 -15.823867 2.243540 -5.255036 -3.180153 14.282875 -0.826592 6.952497 -0.000004 -12.690591 -0.000000 15.572501 -17.528639 3.153857 1.665665 -1.955921 -2.878295 4.727793 -4.170583 4.993920 11.020511 0.000006 -0.000002 12.109034 -3.735710 -2.866780 0.000001 -0.000001 -0.000000 1.291983 -1.928547 -1.498087 14.800113 0.567469 3.865602 14.242553 -1.341733 -6.660647 19.631941 0.143926 -0.648241 49.258522 -0.494704 -5.584514 0.353029 -1.511150 -0.031941 20.222767 3.684309 2.316629 18.787245 0.000008 0.000002 10.751609 -0.479866 1.397904 -0.000001 0.000000 0.000000 3.273805 0.305948 -0.580111 21.486797 11.830367 2.266133 8.162917 0.000001 -0.000002 18.399052 -3.798979 -4.940567 0.000002 -0.000001 -0.000001 15.643135 20.309389 -21.265654 -0.409024 -0.782178 27.071117 -14.373335 -6.310906 2.826702 1.662080 -1.816298 -0.523356 0.000000 -0.000000 0.000002 -12.831369 -14.454500 10.497659 0.027641 0.711649 17.577021 15.996552 4.513760 -21.041672 -1.418568 1.016286 -1.132998 -0.000000 -0.000000 -0.000001 
